HIERARCHY
ROOT Hips
{
  OFFSET -33.9132 29.2015 117.021
  CHANNELS 6 Xposition Yposition Zposition Zrotation Xrotation Yrotation
  JOINT LeftUpLeg
  {
    OFFSET 8.64259 1.95398 -2.38835
    CHANNELS 3 Zrotation Xrotation Yrotation
    JOINT LeftLeg
    {
      OFFSET 43.7702 0 0
      CHANNELS 3 Zrotation Xrotation Yrotation
      JOINT LeftFoot
      {
        OFFSET 40.6238 0 0
        CHANNELS 3 Zrotation Xrotation Yrotation
        JOINT LeftToeBase
        {
          OFFSET 12.7242 0 0
          CHANNELS 3 Zrotation Xrotation Yrotation
          End Site
          {
            OFFSET 0 0 0
          }
        }
      }
    }
  }
  JOINT RightUpLeg
  {
    OFFSET -8.2249 1.95398 -2.59336
    CHANNELS 3 Zrotation Xrotation Yrotation
    JOINT RightLeg
    {
      OFFSET 43.5653 0 0
      CHANNELS 3 Zrotation Xrotation Yrotation
      JOINT RightFoot
      {
        OFFSET 40.6238 0 0
        CHANNELS 3 Zrotation Xrotation Yrotation
        JOINT RightToeBase
        {
          OFFSET 12.7242 0 0
          CHANNELS 3 Zrotation Xrotation Yrotation
          End Site
          {
            OFFSET 0 0 0
          }
        }
      }
    }
  }
  JOINT Spine
  {
    OFFSET 0.165834 0.87714 6.61349
    CHANNELS 3 Zrotation Xrotation Yrotation
    JOINT Spine1
    {
      OFFSET 7.38963 1.71661e-005 0
      CHANNELS 3 Zrotation Xrotation Yrotation
      JOINT Spine2
      {
        OFFSET 11.9445 1.14441e-005 0
        CHANNELS 3 Zrotation Xrotation Yrotation
        JOINT Spine3
        {
          OFFSET 14.7254 4.19617e-005 0
          CHANNELS 3 Zrotation Xrotation Yrotation
          JOINT Spine4
          {
            OFFSET 10.9679 0 0
            CHANNELS 3 Zrotation Xrotation Yrotation
            JOINT RightShoulder
            {
              OFFSET 2.46616 -1.6653 3.69651
              CHANNELS 3 Zrotation Xrotation Yrotation
              JOINT RightArm
              {
                OFFSET 13.0012 0 0
                CHANNELS 3 Zrotation Xrotation Yrotation
                JOINT RightForeArm
                {
                  OFFSET 28.7848 1.62311e-005 0
                  CHANNELS 3 Zrotation Xrotation Yrotation
                  JOINT RightHand
                  {
                    OFFSET 26.5688 1.62095e-005 0
                    CHANNELS 3 Zrotation Xrotation Yrotation
                    End Site
                    {
                      OFFSET 0 0 0
                    }
                  }
                }
              }
            }
            JOINT LeftShoulder
            {
              OFFSET 2.38034 -1.29275 -3.7523
              CHANNELS 3 Zrotation Xrotation Yrotation
              JOINT LeftArm
              {
                OFFSET 16.3182 6.07031e-005 0
                CHANNELS 3 Zrotation Xrotation Yrotation
                JOINT LeftForeArm
                {
                  OFFSET 27.0901 0 0
                  CHANNELS 3 Zrotation Xrotation Yrotation
                  JOINT LeftHand
                  {
                    OFFSET 24.5451 1.51738e-005 0
                    CHANNELS 3 Zrotation Xrotation Yrotation
                    End Site
                    {
                      OFFSET 0 0 0
                    }
                  }
                }
              }
            }
            JOINT Neck
            {
              OFFSET 5.0226 -0.0266342 0
              CHANNELS 3 Zrotation Xrotation Yrotation
              JOINT Head
              {
                OFFSET 6.69364 2.86102e-005 0
                CHANNELS 3 Zrotation Xrotation Yrotation
                End Site
                {
                  OFFSET 0 0 0
                }
              }
            }
          }
        }
      }
    }
  }
}
MOTION
Frames:	18
Frame Time:	0.0416667
-301.555 91.3386 291.434 -102.176 -41.7439 -98.629 -171.287 3.7256 91.4981 -39.6885 17.8202 -2.10638 86.5427 16.809 -0.892417 15.7939 -10.1652 6.64072 177.354 19.4689 89.1755 -18.0629 -9.5716 -0.694236 53.347 1.75862 1.63494 22.2878 2.56521 1.44895 0.863007 8.50875 -90.4814 9.863 1.50184 -1.07611 -1.80758 1.45303 -1.14118 -24.3484 1.7558 -0.574915 -4.33575 1.75581 -0.574912 92.7287 -26.1184 -102.562 47.6187 6.37555 -3.06438 -4.25422 -23.0283 -4.98376 -16.7524 1.36337 -14.8804 -89.9386 -48.6035 78.5174 -23.1936 -11.0441 -34.517 -9.39635 34.1923 -0.0169668 14.4286 -3.44697 -25.6956 2.40469 -0.773885 -6.42489 -4.177 0.28858 -1.78475 
-298.496 93.1837 289.521 -105.668 -41.226 -101.654 -172.029 0.675481 90.3549 -33.7918 17.8299 -2.04486 80.3975 13.1863 0.0786114 15.1758 -9.79453 5.43609 173.404 17.5618 88.5605 -26.4349 2.638 1.20743 58.4698 -0.554732 -0.468988 21.845 2.45476 2.42735 0.461974 8.39 -89.921 10.0918 0.956494 0.0773849 -1.57885 0.958977 0.0351981 -24.1163 0.889007 0.361293 -4.10368 0.88904 0.361298 90.8711 -29.3421 -105.272 47.3184 6.06655 -4.59317 -4.47533 -27.6317 -5.0474 -18.7802 1.83156 -16.7909 -86.8595 -43.8956 82.3791 -20.6039 -11.8899 -25.1808 -6.97298 26.7235 -4.85727 17.6486 -4.8407 -28.896 -3.77634 0.22968 -9.57505 -3.27475 1.26988 0.301551 
-295.717 94.5444 288.074 -108.456 -41.3 -103.978 -173.577 -1.69952 88.2533 -28.4381 17.5005 -1.12322 76.3255 10.7509 1.03516 11.8298 -11.8334 5.54152 169.645 14.3771 86.4518 -44.7861 -0.576783 1.43983 63.0007 -2.4737 -0.286636 24.7027 1.2031 2.33462 0.366008 8.27219 -90.0798 10.3324 0.692794 -0.213968 -1.33835 0.682701 -0.244258 -23.8752 0.725052 0.0041419 -3.86259 0.725067 0.00414463 92.5558 -26.428 -102.793 46.586 5.45869 -7.78312 -5.20011 -40.5088 -5.3937 -17.2444 2.09919 -19.5261 -86.7331 -46.0678 82.9674 -18.867 -10.3297 -13.8761 -8.29108 19.4819 -5.80652 16.8282 -4.908 -30.7203 -9.50448 0.338147 -3.84971 -3.8588 0.604466 -1.88191 
-293.479 95.066 286.174 -108.757 -41.7219 -104.857 -174.259 -1.02348 87.3014 -26.1098 18.0018 -1.07838 72.8817 8.57466 1.06263 11.5629 -11.8822 5.36974 167.622 7.17727 83.5784 -57.2042 -5.31904 -0.200563 63.4392 -2.51803 -0.684316 24.6334 1.40265 1.78024 0.448204 7.96543 -90.1142 10.9444 0.839517 -0.308253 -0.726282 0.825126 -0.344916 -23.2637 0.893331 -0.0416748 -3.25109 0.89332 -0.0416795 91.1853 -24.3151 -106.562 45.1774 5.84345 -8.71201 -5.10659 -39.0517 -5.33902 -19.6043 2.29164 -18.8978 -85.5048 -49.0026 85.3395 -17.2381 -8.07864 -2.53446 -9.5175 18.5921 -5.67182 12.6627 -3.37178 -27.6335 -12.7779 0.165278 -0.567272 -5.97214 0.296325 -4.23196 
-290.858 94.9492 283.479 -110.001 -40.7994 -106.853 -174.659 0.201478 86.1215 -25.6458 17.2564 -1.43657 70.2139 6.91228 1.02165 10.9966 -11.961 4.97974 166.893 -4.71487 79.8986 -55.2787 -12.5551 -2.59754 63.3869 -2.46803 -0.694744 25.1989 0.784665 3.0715 0.874988 7.9838 -89.993 10.9085 1.74531 -0.150842 -0.761255 1.73694 -0.227535 -23.3056 1.70993 0.380818 -3.2929 1.70993 0.380821 90.7387 -22.3075 -108.441 43.7242 6.07345 -10.3981 -5.1249 -39.3468 -5.35027 -17.7409 2.06827 -18.9457 -84.8815 -52.774 86.7645 -14.6367 -8.24593 5.76776 -11.7602 16.1087 -1.8421 9.31537 -1.84636 -21.1266 -13.2965 -1.14939 0.0856199 -6.94474 -0.960459 -5.5551 
-286.494 94.219 277.068 -103.295 -40.8779 -98.9576 -173.475 12.5752 88.3167 -28.0963 18.4168 -1.77606 66.8049 4.56403 1.01417 9.803 -12.5871 4.84439 171.793 -9.35029 87.0413 -42.3476 -17.1869 -3.1893 65.7961 -4.20996 -1.68742 29.7725 -0.93141 2.25604 1.30151 7.47291 -90.3116 11.9442 2.4417 -0.873247 0.275159 2.40088 -0.979915 -22.2782 2.59123 -0.0985938 -2.26555 2.59123 -0.0985911 91.3567 -21.6508 -107.348 42.1165 5.70463 -14.949 -5.29638 -41.9545 -5.44756 -17.1952 2.00644 -19.3877 -85.4453 -56.6899 86.4335 -11.501 -8.59979 9.84413 -13.9132 5.59855 0.1032 5.98982 -0.474497 -11.76 -11.5693 -2.1288 1.38419 -7.88139 -1.87742 -7.32043 
-280.889 93.9827 271.749 -104.355 -35.6954 -101.206 -174.914 11.2022 88.0386 -19.7751 12.6689 -1.49391 58.7599 -0.549691 -0.831453 10.1999 -12.6485 5.28693 170.031 -13.3567 82.4966 -31.7515 -24.9417 -5.34485 71.8782 -8.94746 -4.06308 40.9078 -5.77491 2.82496 1.62476 8.10132 -90.0714 10.6812 3.2027 -0.439351 -0.985898 3.18025 -0.580027 -23.5528 3.1865 0.544528 -3.54011 3.1865 0.544527 91.543 -21.995 -106.771 41.022 4.63607 -21.7171 -5.16731 -40.0146 -5.37371 -26.7128 2.87354 -17.4688 -86.1281 -56.6974 85.4779 -14.9035 -16.69 14.0855 -10.0368 10.0414 -0.0153747 0.256044 0.160301 -7.25886 -7.43722 -1.27814 3.26622 -7.2818 -1.2922 -5.79278 
-274.868 93.931 264.207 -102.616 -40.4388 -97.0767 -174.276 15.2485 91.9564 -13.2748 7.9841 -1.73685 58.3016 0.0121658 -1.47309 11.5581 -14.2835 8.91445 172.18 -9.13729 89.1596 -27.0907 -18.821 -1.38853 76.7232 -11.6756 -2.97736 31.7954 -2.04943 3.16284 1.03252 8.30629 -90.4707 10.2703 1.84194 -1.09891 -1.39999 1.79181 -1.17894 -23.944 2.08705 -0.494365 -3.9313 2.08706 -0.494366 91.3317 -24.8421 -106.046 38.1901 5.85273 -23.66 -5.21854 -40.7911 -5.40282 -31.291 4.56108 -21.6611 -87.4039 -53.4188 83.1848 -19.1584 -13.682 7.28698 -10.9739 19.2386 -0.0164212 -0.337979 0.316157 -8.36202 -3.06975 -0.597211 1.647 -6.578 -0.697466 -2.2579 
-269.984 95.1392 258.373 -106.833 -42.6608 -104.993 -171.784 13.2385 87.557 -22.4325 -8.24371 -3.37559 61.4655 2.33888 -0.566079 11.6326 -12.5682 6.4594 170.59 -5.37525 85.4382 -29.9994 -17.7988 -1.83712 75.6485 -10.5068 -3.12705 28.8351 -0.741555 2.93104 0.595551 8.81995 -89.9798 9.23453 1.19682 -0.0465295 -2.43586 1.19361 -0.0991706 -24.9752 1.15546 0.315356 -4.96259 1.15546 0.31536 91.5997 -26.3074 -104.891 40.0325 6.61022 -15.7527 -5.09652 -38.9003 -5.33476 -31.4277 3.7728 -18.8216 -88.2027 -49.7665 81.3764 -19.778 -10.9841 -6.0558 -11.8076 25.4857 -0.0190493 6.31832 -0.106966 -9.91901 -4.04722 -0.810004 -1.95601 -7.95054 -0.562729 -0.881515 
-266.791 95.8907 254.059 -102.609 -44.8727 -101.603 -169.034 16.121 90.3681 -43.0552 3.25275 -3.39485 67.2109 5.20643 0.479393 12.9283 -12.4919 7.55154 173.388 0.0630271 88.5018 -28.0963 -14.3439 -1.79747 72.6396 -7.94866 -1.93286 26.1687 0.55205 2.38664 0.322729 8.27885 -90.0724 10.3166 0.609852 -0.197193 -1.35428 0.6006 -0.223847 -23.8906 0.640942 -0.00477264 -3.87791 0.640931 -0.004774 92.3178 -25.3457 -103.719 46.2809 6.71161 -3.75939 -4.65041 -31.0976 -5.12222 -20.7644 2.22389 -17.6081 -87.9362 -47.8775 81.429 -18.3066 -10.7125 -13.7898 -11.6601 21.2652 -0.0138499 10.7053 -1.14861 -14.8634 -8.22559 -0.107105 -1.78956 -8.73259 0.0231254 -0.040025 
-263.428 96.1259 251.094 -102.816 -44.9581 -101.619 -169.303 7.40216 93.7481 -52.3014 8.78402 -0.627529 68.0782 5.93292 1.41975 12.4916 -12.5987 7.30486 173.798 3.02571 88.6975 -27.577 -14.9402 -1.73777 70.6666 -6.83789 -2.07751 24.649 1.2652 2.22826 -0.0298082 8.0675 -90.21 10.7393 -0.156121 -0.403507 -0.93165 -0.173728 -0.396247 -23.4664 -0.0276366 -0.431774 -3.45374 -0.0276292 -0.431772 93.2049 -25.4563 -101.764 49.1898 8.59879 6.65296 -4.8046 -33.9433 -5.1877 -16.6125 1.15162 -13.5579 -88.0117 -47.1217 81.1679 -19.1281 -13.3608 -18.4344 -9.93636 18.2637 -0.122346 11.8713 -2.27541 -21.0978 -10.9118 1.27883 0.733122 -10.1046 1.1379 1.77131 
-259.496 96.0039 248.202 -102.834 -45.7983 -100.784 -170.333 -1.99409 96.4122 -50.1379 11.0658 1.96665 66.2747 4.67153 1.08733 11.8481 -10.8429 4.03949 174.517 6.1569 89.2966 -27.0854 -14.0793 -1.4784 68.0931 -5.30561 -1.48338 23.7803 1.6836 2.12345 -0.524309 7.9687 -90.4184 10.9327 -1.2374 -0.715053 -0.737806 -1.26769 -0.659905 -23.2746 -0.965311 -1.0539 -3.26191 -0.965322 -1.0539 93.9562 -24.8494 -100.326 50.709 9.96079 12.8193 -4.83462 -34.4821 -5.20343 -13.8114 0.876617 -12.9016 -87.7925 -45.8918 81.273 -23.8235 -15.9806 -25.2493 -8.01897 21.2354 -0.179492 12.6817 -2.98167 -25.0015 -12.4664 3.03008 2.18303 -11.0327 2.77844 2.93887 
-254.28 95.5983 244.771 -101.614 -48.493 -99.8402 -170.794 -7.96838 97.2849 -41.3761 16.853 3.18464 66.5041 4.64941 -0.828607 14.8684 -10.2416 5.87696 175.16 10.9656 88.9756 -26.1041 -12.6797 -1.4527 64.6572 -2.9697 -1.34681 22.222 2.33151 2.28066 -1.10398 7.84143 -90.4745 11.1848 -2.41762 -0.707684 -0.484065 -2.44639 -0.600546 -23.032 -2.09313 -1.40181 -3.01936 -2.09312 -1.4018 93.6511 -25.1686 -100.891 52.8248 9.91326 14.3091 -4.45068 -27.1528 -5.0448 -13.9633 0.820993 -12.3339 -86.9308 -44.0858 82.3033 -26.6082 -14.8951 -30.5067 -7.47848 29.5911 -0.0103405 14.5931 -3.67499 -26.5839 -12.3702 3.86433 2.82725 -11.9742 3.58116 2.83856 
-247.059 94.3837 240.075 -100.831 -49.726 -99.8014 -170.106 -10.3304 96.654 -31.2395 20.3269 1.84191 72.6633 9.83399 1.04558 32.4755 -3.81219 13.7215 175.76 17.2407 87.35 -25.7954 -12.8306 -1.91037 60.0647 0.723394 -0.591956 21.3291 2.45116 3.15047 -1.09535 7.94009 -90.4137 10.988 -2.37216 -0.597582 -0.680866 -2.39616 -0.492539 -23.2289 -2.08287 -1.28313 -3.21626 -2.08285 -1.28313 94.0085 -25.4589 -100.029 55.1319 8.60095 11.9444 -4.29286 -23.8515 -4.99332 -14.9361 1.46683 -16.9219 -87.7765 -43.7198 80.8677 -26.452 -12.2989 -34.6781 -8.04413 35.5677 -0.0149955 19.195 -4.52847 -25.3915 -12.0647 2.71886 1.3836 -8.56136 2.51614 3.73996 
-238.757 92.9861 234.639 -101.582 -47.3018 -102.355 -170.383 -10.377 92.3951 -27.4206 15.5329 -0.567406 82.8842 16.5458 -0.39479 28.8028 -6.16229 13.7688 175.578 21.1651 84.3581 -21.8435 -16.0716 -2.22256 58.0787 1.73715 -1.02665 24.5298 0.934567 3.49711 -0.67705 8.29872 -90.0033 10.2871 -1.35019 0.121513 -1.38306 -1.34352 0.180819 -23.9245 -1.3243 -0.289968 -3.91187 -1.3243 -0.28997 93.9212 -28.0137 -99.4536 52.2747 7.34672 5.5618 -4.61068 -30.3301 -5.10506 -15.9073 2.03118 -20.3546 -88.3037 -43.5462 79.9811 -26.8436 -12.3218 -35.3417 -7.96054 36.6191 -0.0142017 17.548 -3.76994 -23.552 -8.71529 1.77849 -3.14184 -8.14904 1.7756 4.29738 
-231.43 93.6464 230.046 -101.507 -40.5585 -102.554 -172.274 -6.53706 87.8826 -28.4122 7.70465 -1.82465 84.2617 15.6864 -1.90068 20.2592 -11.5276 13.6221 174.121 19.129 84.5263 -12.7269 -6.28641 -0.439985 63.9445 -4.35044 -1.40996 25.4471 1.10311 1.56253 0.00461451 8.57829 -89.6928 9.71515 0.148168 0.596275 -1.95599 0.17427 0.589166 -24.4895 -0.0378911 0.613239 -4.47689 -0.037884 0.613237 92.921 -28.4646 -101.394 49.5574 6.04688 -1.58505 -4.73151 -32.6119 -5.15534 -16.5816 1.86736 -18.5511 -88.1159 -44.3772 80.4575 -25.3527 -13.2947 -29.7517 -8.52438 33.6346 -0.0238286 10.0441 -1.47689 -18.1917 -8.91418 1.8074 -3.35428 -6.93893 1.91941 2.81667 
-225.724 95.5164 226.194 -99.5533 -36.4773 -98.8803 -173.494 -2.29248 87.2928 -25.5688 3.65185 -1.36048 79.7365 12.5034 -1.11994 17.5699 -13.3934 13.6769 172.193 22.1713 86.7275 -25.768 -0.808435 1.87103 64.5447 -3.4803 -0.883852 23.1515 2.29014 1.06288 0.450729 8.47988 -89.784 9.91263 0.996464 0.347802 -1.75796 1.01083 0.303593 -24.2951 0.845872 0.631211 -4.28246 0.845879 0.631211 91.5069 -27.5384 -104.628 48.1349 4.89101 -7.36353 -4.68534 -31.7518 -5.13534 -17.3929 1.62566 -16.2683 -87.8267 -45.7261 81.187 -23.1543 -14.6246 -18.9905 -9.18987 29.7284 -0.0189259 6.48368 -0.247587 -11.773 -9.71356 2.00846 -2.36155 -6.38465 2.10351 1.34096 
-221.881 96.5722 222.871 -99.0617 -35.1287 -96.8627 -173.892 1.12329 88.3806 -25.0884 5.74637 -0.83356 74.9631 9.2344 1.15997 18.0795 -12.6718 13.073 171.602 20.0593 87.1261 -44.2142 -11.8731 0.598492 64.5901 -3.71045 -3.01448 23.77 1.06975 4.19972 0.82449 8.32345 -89.8628 10.227 1.70552 0.126762 -1.44284 1.70945 0.0515383 -23.986 1.58855 0.633598 -3.97338 1.58857 0.633617 91.3938 -26.0527 -105.424 48.3206 3.57534 -11.3395 -4.79388 -33.7502 -5.1833 -20.9433 2.31063 -18.0176 -88.033 -47.7823 81.2615 -18.2342 -6.56456 -4.27427 -12.151 42.1648 -0.0274836 7.48787 -0.0927769 -9.70183 -10.1199 1.4334 -2.19561 -5.83615 1.58144 -1.11917 
